<?xml version="1.0" standalone="no"?><svg xmlns="http://www.w3.org/2000/svg" viewBox="0 0 1440 320"><path fill="#f3f4f5" fill-opacity="1" d="M0,128L21.8,144C43.6,160,87,192,131,202.7C174.5,213,218,203,262,181.3C305.5,160,349,128,393,133.3C436.4,139,480,181,524,202.7C567.3,224,611,224,655,234.7C698.2,245,742,267,785,261.3C829.1,256,873,224,916,181.3C960,139,1004,85,1047,90.7C1090.9,96,1135,160,1178,192C1221.8,224,1265,224,1309,197.3C1352.7,171,1396,117,1418,90.7L1440,64L1440,320L1418.2,320C1396.4,320,1353,320,1309,320C1265.5,320,1222,320,1178,320C1134.5,320,1091,320,1047,320C1003.6,320,960,320,916,320C872.7,320,829,320,785,320C741.8,320,698,320,655,320C610.9,320,567,320,524,320C480,320,436,320,393,320C349.1,320,305,320,262,320C218.2,320,175,320,131,320C87.3,320,44,320,22,320L0,320Z"></path></svg>